<?xml version="1.0" encoding="utf-8"?>
<!-- Generator: Adobe Illustrator 18.1.1, SVG Export Plug-In . SVG Version: 6.00 Build 0)  -->
<svg version="1.1" id="Layer_1" xmlns="http://www.w3.org/2000/svg" xmlns:xlink="http://www.w3.org/1999/xlink" x="0px" y="0px"
	 viewBox="-347 274 96 65" enable-background="new -347 274 96 65" xml:space="preserve">
<path fill="#262631" d="M-328.8,274h6.9v59.8c0,1.5-0.5,2.7-1.4,3.7c-1,1-2.2,1.4-3.7,1.4h-14.8c-1.5,0-2.7-0.5-3.7-1.4
	c-1-1-1.4-2.2-1.4-3.7v-29h6.9v27.9h11.3V274z M-292.1,274h-16c-1.5,0-2.7,0.5-3.7,1.4c-1,1-1.5,2.2-1.5,3.7V292
	c0,1.9,0.7,3.7,2,5.2l17.5,21.1v14.4h-12.6V317h-6.9v16.8c0,1.5,0.5,2.7,1.5,3.7c1,1,2.2,1.4,3.7,1.4h16c1.5,0,2.7-0.5,3.7-1.4
	c0.9-1,1.4-2.2,1.4-3.7v-14.7c0-1.9-0.6-3.6-1.9-5.1l-17.5-21.1v-12.6h12.6v14.3h6.9v-15.4c0-1.5-0.5-2.7-1.4-3.7
	C-289.4,274.5-290.6,274-292.1,274z M-251,286.1v40.7c0,3.5-1.2,6.5-3.5,8.7c-2.3,2.3-5.3,3.4-8.8,3.4h-15.2V274h15.2
	c3.5,0,6.5,1.1,8.8,3.4C-252.2,279.7-251,282.6-251,286.1z M-257.9,286.6c0-1.9-0.6-3.5-1.8-4.6c-1.2-1.2-2.7-1.8-4.7-1.8h-7.3v52.5
	h6.9c2.1,0,3.7-0.6,4.9-1.7c1.3-1.2,1.9-2.7,1.9-4.8C-257.9,326.2-257.9,286.6-257.9,286.6z"/>
</svg>
