<?xml version="1.0" encoding="utf-8"?>
<!-- Generator: Adobe Illustrator 15.0.0, SVG Export Plug-In . SVG Version: 6.00 Build 0)  -->
<!DOCTYPE svg PUBLIC "-//W3C//DTD SVG 1.1//EN" "http://www.w3.org/Graphics/SVG/1.1/DTD/svg11.dtd">
<svg version="1.1" id="Layer_1" xmlns="http://www.w3.org/2000/svg" xmlns:xlink="http://www.w3.org/1999/xlink" x="0px" y="0px"
	 width="96px" height="65px" viewBox="0 0 96 65" enable-background="new 0 0 96 65" xml:space="preserve">
<path fill="#FFFFFF" d="M18.204,0h6.86v59.812c0,1.49-0.483,2.728-1.438,3.683c-0.955,0.954-2.193,1.438-3.683,1.438H5.12
	c-1.489,0-2.728-0.484-3.681-1.438C0.484,62.542,0,61.304,0,59.812V30.86h6.86v27.865h11.344V0z M54.885,0H38.839
	c-1.485,0-2.73,0.483-3.699,1.436C34.171,2.39,33.678,3.63,33.678,5.12v12.91c0,1.901,0.664,3.661,1.972,5.228l17.455,21.093v14.374
	H40.539V43.046h-6.861v16.767c0,1.492,0.493,2.732,1.462,3.686c0.968,0.952,2.211,1.436,3.699,1.436h16.046
	c1.491,0,2.724-0.485,3.665-1.442c0.939-0.953,1.415-2.191,1.415-3.679V45.07c0-1.898-0.636-3.63-1.891-5.147L40.539,18.832V6.208
	h12.566v14.334h6.86V5.12c0-1.486-0.476-2.723-1.415-3.679C57.607,0.484,56.375,0,54.885,0z M96,12.125v40.683
	c0,3.519-1.178,6.451-3.5,8.718c-2.318,2.261-5.276,3.408-8.788,3.408H68.533V0h15.179c3.54,0,6.504,1.147,8.81,3.409
	C94.83,5.676,96,8.607,96,12.125z M89.141,12.613c0-1.94-0.589-3.458-1.797-4.642c-1.211-1.187-2.746-1.763-4.69-1.763h-7.261
	v52.516h6.936c2.062,0,3.68-0.567,4.948-1.735c1.254-1.154,1.864-2.709,1.864-4.751V12.613z"/>
</svg>
